<svg width="103" height="115" viewBox="0 0 103 115" fill="none" xmlns="http://www.w3.org/2000/svg">
<path d="M98.3189 0H4.67693C2.43385 0 0.750993 1.8981 0.94889 4.14094L9.50196 99.9879C9.7001 102.229 11.6385 104.575 13.8127 105.18L47.53 114.546C49.7012 115.148 53.2502 115.152 55.4246 114.554L89.1837 105.201C91.3583 104.597 93.2968 102.273 93.4947 100.028L102.051 4.14094C102.249 1.8981 100.574 0 98.3189 0ZM82.0789 34.598C82.0775 34.6127 82.066 34.6242 82.0516 34.6266C82.0369 34.6291 82.0227 34.6215 82.0164 34.6078L55.5998 45.4333C55.2235 45.5875 55.009 45.9864 55.0872 46.3854C55.1659 46.7844 55.5157 47.0722 55.9225 47.0722H76.4704C77.5634 47.0722 78.6047 47.5364 79.3357 48.3492C80.0665 49.1621 80.4178 50.2471 80.3018 51.3338L77.0912 81.4516C76.9336 82.9292 75.9407 84.1845 74.5388 84.6778L52.7288 92.3518C51.9074 92.641 51.012 92.6432 50.1886 92.3579L28.4805 84.8383C27.0701 84.3496 26.0689 83.0907 25.9103 81.6064L24.4549 67.9667C24.3785 67.2506 24.6098 66.5357 25.0911 66.0004C25.5727 65.4649 26.2587 65.159 26.979 65.159H33.0197C34.3178 65.159 35.4065 66.138 35.5438 67.4285L36.4367 75.8125L51.4674 81.0372L66.567 75.7648L68.4138 58.3767H25.721C24.4268 58.3767 23.3399 57.4031 23.1979 56.1168L22.3851 48.7472C22.261 47.6231 22.8952 46.5527 23.9404 46.122L51.2641 34.8568C51.5742 34.729 51.7503 34.4004 51.6853 34.0715C51.6201 33.7429 51.332 33.5062 50.9971 33.5062H22.2289C21.3628 33.5062 20.6365 32.8522 20.5461 31.9912L19.7139 24.0702C19.6639 23.5935 19.8185 23.1178 20.1393 22.7614C20.4601 22.4051 20.9172 22.2016 21.3966 22.2016H81.5913C82.0733 22.2016 82.5324 22.4073 82.8534 22.7667C83.1744 23.1264 83.3269 23.6057 83.2724 24.0846L82.0789 34.598Z" fill="#00C4F0"/>
</svg>
