<svg width="103" height="115" viewBox="0 0 103 115" fill="none" xmlns="http://www.w3.org/2000/svg">
<path d="M2.58881 0C1.53188 0 0.744367 0.861304 0.838146 1.91401L9.74866 101.86C9.84244 102.913 10.7522 104.006 11.7711 104.288L49.5827 114.787C50.6012 115.07 52.2677 115.07 53.2866 114.788L91.2132 104.272C92.2317 103.989 93.1426 102.897 93.2363 101.844L102.161 1.91401C102.256 0.861304 101.468 0 100.411 0H2.58881ZM83.1855 22.9224C83.1013 23.8613 82.9556 25.4913 82.8619 26.544L82.627 29.1663C82.5325 30.2187 82.398 31.7237 82.3269 32.5105C82.2561 33.2976 82.1889 33.9414 82.1766 33.9414C82.1647 33.9414 81.2899 33.9414 80.233 33.9414H53.4215C52.3646 33.9414 51.491 33.9414 51.4794 33.9414C51.4679 33.9414 50.5935 33.9414 49.5366 33.9414H35.416C34.359 33.9414 33.5715 34.8027 33.6653 35.8554L34.489 45.0622C34.5827 46.1145 35.5247 46.9762 36.5817 46.9762H49.537C50.5939 46.9762 51.4683 46.9762 51.4798 46.9762C51.4913 46.9762 52.3649 46.9762 53.4219 46.9762H75.6901C76.747 46.9762 78.3828 46.9762 79.3248 46.9762C80.266 46.9762 80.9671 47.7445 80.8817 48.6835C80.796 49.6224 80.6496 51.2528 80.5558 52.3051L77.9073 81.9868C77.8128 83.0395 77.6933 84.3843 77.6418 84.9754C77.5891 85.5662 76.7132 86.2806 75.6947 86.5631L53.3519 92.7583C52.3334 93.0404 51.4871 93.2741 51.4714 93.2775C51.4556 93.281 50.6097 93.0523 49.5908 92.7698L27.2242 86.5635C26.2057 86.281 25.2956 85.1884 25.2018 84.1357L23.762 67.9761C23.6683 66.9234 24.4566 66.0621 25.5135 66.0621H27.5547C28.6116 66.0621 30.3412 66.0621 31.3981 66.0621H34.4421C35.499 66.0621 36.4402 66.9234 36.5348 67.9761L37.0994 74.302C37.1932 75.3547 38.1044 76.4412 39.1252 76.7168L49.5873 79.542C50.6074 79.8176 51.446 80.0432 51.4506 80.0432C51.4552 80.0432 52.2935 79.8172 53.3139 79.5416L63.7948 76.7095C64.8148 76.4339 65.7269 75.347 65.8214 74.2946L66.9579 61.6207C67.0525 60.568 66.2649 59.7067 65.208 59.7067H53.4219C52.3649 59.7067 51.4913 59.7067 51.4798 59.7067C51.4683 59.7067 50.5939 59.7067 49.537 59.7067H24.9435C23.8866 59.7067 22.9453 58.845 22.8515 57.7927L20.0628 26.5436C19.969 25.4909 19.8233 23.8613 19.7392 22.922C19.6558 21.983 20.4517 21.2147 21.5087 21.2147H49.537C50.5939 21.2147 51.4683 21.2147 51.4798 21.2147C51.4913 21.2147 52.3649 21.2147 53.4219 21.2147H81.4164C82.4729 21.2147 83.2693 21.983 83.1855 22.9224Z" fill="#00C4F0"/>
</svg>
