<svg width="106" height="84" viewBox="0 0 106 84" fill="none" xmlns="http://www.w3.org/2000/svg">
<path d="M41.75 2.62523H23V52.4295C23 64.7529 18.7737 68.1938 11.4191 68.1938C7.97258 68.1938 4.86875 67.6029 2.45422 66.7727L0.5 81.3525C3.94531 82.5389 9.23258 83.25 13.3688 83.25C30.2551 83.25 41.75 75.3115 41.75 52.5516V2.62523ZM82.6398 0.75C64.4891 0.75 53 11.062 53 24.6923C53 36.4305 61.8479 43.7798 74.7127 48.5201C84.0174 51.8384 87.6952 54.8032 87.6952 59.662C87.6952 64.9955 83.4439 68.4335 75.4027 68.4335C67.9348 68.4335 61.1553 65.9398 56.5604 63.4519V63.447L53 78.2641C57.3685 80.7574 65.5252 83.2458 74.3673 83.2458C95.622 83.2453 105.5 71.8664 105.5 58.4728C105.5 47.0939 99.1817 39.7463 85.513 34.5284C75.4023 30.4992 71.1528 28.2483 71.1528 23.1513C71.1528 19.1201 74.8297 15.4477 82.4129 15.4477C89.8768 15.4477 95.0091 17.9571 98 19.5002L102.482 4.50023C97.7949 2.44219 91.4816 0.75 82.6398 0.75Z" fill="#00C4F0"/>
</svg>
