<svg width="119" height="107" viewBox="0 0 119 107" fill="none" xmlns="http://www.w3.org/2000/svg">
<path d="M118.659 53.7218C118.659 45.8602 108.845 38.4099 93.7995 33.7897C97.2716 18.4052 95.7284 6.16529 88.9288 2.2466C87.3615 1.3274 85.529 0.891987 83.5277 0.891987V6.28624C84.6369 6.28624 85.529 6.50395 86.2765 6.91517C89.5557 8.80195 90.9784 15.9862 89.8692 25.2266C89.604 27.5004 89.1699 29.8952 88.6395 32.3383C83.9135 31.1772 78.7535 30.2822 73.3283 29.7017C70.0731 25.2266 66.6974 21.1628 63.2976 17.6069C71.1582 10.2775 78.5365 6.26205 83.5518 6.26205V0.867798C76.921 0.867798 68.2406 5.60894 59.4638 13.8334C50.687 5.65732 42.0066 0.964556 35.3758 0.964556V6.35881C40.367 6.35881 47.7694 10.3501 55.63 17.6311C52.2543 21.187 48.8786 25.2266 45.6717 29.7017C40.2223 30.2822 35.0623 31.1772 30.3364 32.3625C29.7818 29.9436 29.3719 27.5972 29.0825 25.3476C27.9493 16.1072 29.3478 8.9229 32.6029 7.01193C33.3263 6.57652 34.2666 6.383 35.3758 6.383V0.988745C33.3504 0.988745 31.5179 1.42416 29.9265 2.34336C23.1509 6.26205 21.6319 18.4777 25.1281 33.8139C10.1304 38.4583 0.36499 45.8844 0.36499 53.7218C0.36499 61.5834 10.1786 69.0338 25.2246 73.654C21.7524 89.0385 23.2956 101.278 30.0952 105.197C31.6625 106.116 33.495 106.552 35.5205 106.552C42.1513 106.552 50.8317 101.811 59.6085 93.5861C68.3853 101.762 77.0656 106.455 83.6965 106.455C85.7219 106.455 87.5544 106.019 89.1458 105.1C95.9213 101.182 97.4404 88.9659 93.9441 73.6298C108.894 69.0096 118.659 61.5592 118.659 53.7218ZM87.2651 37.5874C86.3729 40.7079 85.2638 43.9251 84.0099 47.1423C83.0213 45.2071 81.9845 43.272 80.8513 41.3368C79.7421 39.4016 78.5606 37.5149 77.3791 35.6765C80.803 36.1844 84.1064 36.8134 87.2651 37.5874ZM76.2217 63.3492C74.341 66.6148 72.412 69.7111 70.4107 72.5896C66.818 72.9041 63.1771 73.0734 59.512 73.0734C55.8711 73.0734 52.2302 72.9041 48.6616 72.6138C46.6603 69.7353 44.7072 66.6632 42.8264 63.4218C40.9939 60.253 39.3302 57.0358 37.8111 53.7944C39.3061 50.553 40.9939 47.3116 42.8023 44.1428C44.6831 40.8772 46.612 37.781 48.6133 34.9024C52.2061 34.5879 55.847 34.4186 59.512 34.4186C63.153 34.4186 66.7939 34.5879 70.3625 34.8782C72.3638 37.7568 74.3169 40.8288 76.1976 44.0702C78.0301 47.239 79.6939 50.4562 81.2129 53.6976C79.6939 56.939 78.0301 60.1804 76.2217 63.3492ZM84.0099 60.2046C85.312 63.446 86.4212 66.6874 87.3374 69.832C84.1787 70.6061 80.8513 71.2592 77.4032 71.7672C78.5847 69.9046 79.7662 67.9936 80.8754 66.0343C81.9845 64.0991 83.0213 62.1398 84.0099 60.2046ZM59.5603 86.0148C57.3178 83.6926 55.0754 81.1043 52.8571 78.2742C55.0272 78.3709 57.2455 78.4435 59.4879 78.4435C61.7545 78.4435 63.9969 78.3951 66.1911 78.2742C64.021 81.1043 61.7786 83.6926 59.5603 86.0148ZM41.6208 71.7672C38.1969 71.2592 34.8935 70.6303 31.7349 69.8562C32.627 66.7358 33.7362 63.5186 34.99 60.3014C35.9786 62.2365 37.0154 64.1717 38.1487 66.1068C39.282 68.042 40.4393 69.9288 41.6208 71.7672ZM59.4397 21.4289C61.6821 23.7511 63.9245 26.3393 66.1429 29.1695C63.9728 29.0727 61.7545 29.0002 59.512 29.0002C57.2455 29.0002 55.0031 29.0485 52.8089 29.1695C54.979 26.3393 57.2214 23.7511 59.4397 21.4289ZM41.5967 35.6765C40.4152 37.5391 39.2337 39.45 38.1246 41.4094C37.0154 43.3445 35.9786 45.2797 34.99 47.2149C33.6879 43.9735 32.5788 40.7321 31.6625 37.5874C34.8212 36.8376 38.1487 36.1844 41.5967 35.6765ZM19.7753 65.9617C11.2396 62.3091 5.71788 57.5196 5.71788 53.7218C5.71788 49.9241 11.2396 45.1104 19.7753 41.4819C21.8489 40.5869 24.1154 39.7887 26.4543 39.0388C27.8287 43.7799 29.6371 48.7146 31.8795 53.7702C29.6612 58.8016 27.8769 63.7121 26.5266 68.429C24.1395 67.6792 21.873 66.8567 19.7753 65.9617ZM32.7476 100.528C29.4683 98.6417 28.0457 91.4574 29.1549 82.217C29.4201 79.9432 29.8541 77.5485 30.3846 75.1053C35.1106 76.2664 40.2706 77.1614 45.6958 77.742C48.9509 82.217 52.3266 86.2809 55.7264 89.8367C47.8659 97.1661 40.4876 101.182 35.4722 101.182C34.3872 101.157 33.4709 100.94 32.7476 100.528ZM89.9415 82.0961C91.0748 91.3365 89.6763 98.5208 86.4211 100.432C85.6978 100.867 84.7574 101.061 83.6483 101.061C78.657 101.061 71.2546 97.0694 63.3941 89.7883C66.7698 86.2325 70.1455 82.1929 73.3524 77.7178C78.8017 77.1372 83.9617 76.2422 88.6877 75.057C89.2423 77.5001 89.6763 79.8465 89.9415 82.0961ZM99.2247 65.9617C97.1511 66.8567 94.8845 67.655 92.5456 68.4048C91.1712 63.6637 89.3628 58.729 87.1204 53.6734C89.3387 48.642 91.123 43.7316 92.4733 39.0146C94.8604 39.7645 97.1269 40.5869 99.2488 41.4819C107.784 45.1346 113.306 49.9241 113.306 53.7218C113.282 57.5196 107.76 62.3333 99.2247 65.9617Z" fill="#00C4F0"/>
<path d="M59.4879 64.7764C65.5737 64.7764 70.5072 59.8271 70.5072 53.7218C70.5072 47.6165 65.5737 42.6672 59.4879 42.6672C53.4022 42.6672 48.4687 47.6165 48.4687 53.7218C48.4687 59.8271 53.4022 64.7764 59.4879 64.7764Z" fill="#00C4F0"/>
</svg>
