<svg width="101" height="96" viewBox="0 0 101 96" fill="none" xmlns="http://www.w3.org/2000/svg">
<path d="M69.968 66.712C73.68 66.328 76.496 63.128 76.368 59.288C76.24 55.448 73.04 52.376 69.2 52.376H68.944C64.976 52.504 61.904 55.832 62.032 59.8C62.16 61.72 62.928 63.384 64.08 64.536C59.728 73.112 53.072 79.384 43.088 84.632C36.304 88.216 29.264 89.496 22.224 88.6C16.464 87.832 11.984 85.272 9.168 81.048C5.072 74.776 4.688 67.992 8.144 61.208C10.576 56.344 14.416 52.76 16.848 50.968C16.336 49.304 15.568 46.488 15.184 44.44C-3.376 57.88 -1.456 76.056 4.176 84.632C8.4 91.032 16.976 95 26.448 95C29.008 95 31.568 94.744 34.128 94.104C50.512 90.904 62.928 81.176 69.968 66.712V66.712Z" fill="#00C4F0"/>
<path d="M92.496 50.84C82.768 39.448 68.432 33.176 52.048 33.176H50C48.848 30.872 46.416 29.336 43.728 29.336H43.472C39.504 29.464 36.432 32.792 36.56 36.76C36.688 40.6 39.888 43.672 43.728 43.672H43.984C46.8 43.544 49.232 41.752 50.256 39.32H52.56C62.288 39.32 71.504 42.136 79.824 47.64C86.224 51.864 90.832 57.368 93.392 64.024C95.568 69.4 95.44 74.648 93.136 79.128C89.552 85.912 83.536 89.624 75.6 89.624C70.48 89.624 65.616 88.088 63.056 86.936C61.648 88.216 59.088 90.264 57.296 91.544C62.8 94.104 68.432 95.512 73.808 95.512C86.096 95.512 95.184 88.728 98.64 81.944C102.352 74.52 102.096 61.72 92.496 50.84Z" fill="#00C4F0"/>
<path d="M27.472 68.888C27.6 72.728 30.8 75.8 34.64 75.8H34.896C38.864 75.672 41.936 72.344 41.808 68.376C41.68 64.536 38.48 61.464 34.64 61.464H34.384C34.128 61.464 33.744 61.464 33.488 61.592C28.24 52.888 26.064 43.416 26.832 33.176C27.344 25.496 29.904 18.84 34.384 13.336C38.096 8.6 45.264 6.296 50.128 6.168C63.696 5.912 69.456 22.808 69.84 29.592C71.504 29.976 74.32 30.872 76.24 31.512C74.704 10.776 61.904 0.0240021 49.616 0.0240021C38.096 0.0240021 27.472 8.344 23.248 20.632C17.36 37.016 21.2 52.76 28.368 65.176C27.728 66.072 27.344 67.48 27.472 68.888V68.888Z" fill="#00C4F0"/>
</svg>
