<svg width="135" height="101" viewBox="0 0 135 101" fill="none" xmlns="http://www.w3.org/2000/svg">
<path d="M116.172 58.0516C111.465 58.0762 107.374 59.2077 103.949 60.8804C102.692 58.396 101.435 56.1822 101.213 54.5587C100.967 52.6646 100.671 51.5085 100.967 49.2455C101.262 46.9824 102.593 43.7601 102.568 43.5141C102.544 43.2681 102.273 42.112 99.5619 42.0874C96.8511 42.0628 94.5099 42.604 94.2388 43.3173C93.9677 44.0307 93.4502 45.6541 93.1052 47.3268C92.6369 49.7866 87.6835 58.5682 84.8494 63.168C83.9376 61.3724 83.149 59.7981 82.9765 58.5436C82.73 56.6495 82.4343 55.4934 82.73 53.2304C83.0258 50.9673 84.3565 47.745 84.3319 47.499C84.3072 47.253 84.0362 46.0969 81.3253 46.0723C78.6145 46.0477 76.2733 46.5889 76.0022 47.3022C75.7311 48.0156 75.4354 49.6882 74.8686 51.3117C74.3018 52.9352 67.7218 67.5957 65.9967 71.3838C65.1095 73.3271 64.3456 74.8767 63.8034 75.9345C63.8034 75.9345 63.7788 76.0083 63.7048 76.1313C63.2366 77.0414 62.9655 77.5333 62.9655 77.5333C62.9655 77.5333 62.9655 77.5333 62.9655 77.5579C62.5959 78.2221 62.2015 78.837 62.0044 78.837C61.8565 78.837 61.5854 77.066 62.0537 74.6554C63.0394 69.5635 65.3806 61.6429 65.356 61.3724C65.356 61.2248 65.7996 59.8473 63.8281 59.1339C61.9058 58.4206 61.2158 59.6013 61.0433 59.6013C60.8708 59.6013 60.7475 60.0195 60.7475 60.0195C60.7475 60.0195 62.8916 51.1149 56.6566 51.1149C52.7629 51.1149 47.3905 55.3704 44.7289 59.2077C43.0531 60.1179 39.4797 62.0611 35.6599 64.1519C34.2059 64.9637 32.7026 65.7754 31.2979 66.538C31.1994 66.4396 31.1008 66.3166 31.0022 66.2182C23.4611 58.1746 9.5126 52.4924 10.1041 41.6938C10.3259 37.7581 11.6813 27.4269 36.8921 14.8819C57.6424 4.67364 74.1539 7.50242 77.0126 13.7749C81.1035 22.7287 68.1654 39.357 46.7251 41.7676C38.5433 42.6778 34.2552 39.5292 33.1709 38.3485C32.0372 37.1186 31.8647 37.0448 31.4458 37.2908C30.7558 37.6598 31.1994 38.7667 31.4458 39.4062C32.0865 41.0789 34.7234 44.0307 39.184 45.482C43.1271 46.7611 52.7136 47.4744 64.3209 42.9976C77.3083 37.9795 87.4617 24.0324 84.4798 12.3483C81.4978 0.49195 61.7826 -3.41915 43.1271 3.19775C32.0372 7.13345 20.011 13.3322 11.3609 21.4004C1.08434 30.9937 -0.542166 39.3324 0.123223 42.8254C2.51369 55.2228 19.6413 63.291 26.4923 69.2684C26.1473 69.4652 25.827 69.6373 25.5559 69.7849C22.1303 71.4822 9.06901 78.2959 5.816 85.5031C2.11939 93.6697 6.40745 99.5241 9.24152 100.311C18.0394 102.746 27.0838 98.368 31.9387 91.1361C36.7935 83.9043 36.2021 74.5078 33.9595 70.2031C33.9348 70.1539 33.9102 70.1047 33.8609 70.0555C34.7481 69.5389 35.6599 68.9978 36.5471 68.4812C38.2968 67.4481 40.0219 66.4888 41.5006 65.7016C40.6627 67.9893 40.0466 70.7197 39.7508 74.6554C39.3812 79.2798 41.2788 85.2818 43.7678 87.6432C44.8768 88.6763 46.1829 88.7009 47.0208 88.7009C49.9288 88.7009 51.235 86.2903 52.6889 83.4369C54.4633 79.944 56.0652 75.8853 56.0652 75.8853C56.0652 75.8853 54.069 86.856 59.4907 86.856C61.4622 86.856 63.4584 84.2978 64.3456 82.9941C64.3456 83.0187 64.3456 83.0187 64.3456 83.0187C64.3456 83.0187 64.3949 82.9449 64.4934 82.7728C64.6906 82.453 64.8138 82.2562 64.8138 82.2562C64.8138 82.2562 64.8138 82.2316 64.8138 82.207C65.6024 80.8295 67.3768 77.7055 70.0137 72.5153C73.4146 65.8246 76.6922 57.4613 76.6922 57.4613C76.6922 57.4613 76.988 59.5029 77.9984 62.8975C78.5898 64.8899 79.822 67.0791 80.8078 69.1946C80.0192 70.3015 79.5263 70.9164 79.5263 70.9164C79.5263 70.9164 79.5263 70.9164 79.5509 70.941C78.9102 71.7774 78.2202 72.6875 77.4562 73.573C74.77 76.7708 71.5663 80.4359 71.1227 81.4936C70.6052 82.7481 70.7284 83.6583 71.7141 84.3962C72.4288 84.9374 73.7103 85.0112 75.0164 84.9374C77.4316 84.7652 79.132 84.1748 79.9699 83.8059C81.276 83.3385 82.804 82.6252 84.2333 81.5674C86.8702 79.6242 88.4721 76.8446 88.3242 73.1795C88.2503 71.1624 87.5849 69.1454 86.7717 67.2513C87.0181 66.9069 87.2399 66.5626 87.4863 66.2182C91.6512 60.1425 94.8795 53.4764 94.8795 53.4764C94.8795 53.4764 95.1753 55.518 96.1857 58.9126C96.6785 60.6344 97.689 62.5039 98.5761 64.3241C94.6577 67.4973 92.2426 71.187 91.3801 73.5976C89.8275 78.0745 91.0351 80.0916 93.327 80.5589C94.362 80.7803 95.8407 80.2883 96.925 79.821C98.3051 79.3782 99.9316 78.6157 101.484 77.4841C104.121 75.5409 106.659 72.8351 106.512 69.17C106.438 67.4973 105.994 65.8492 105.378 64.2503C108.705 62.8729 112.993 62.1103 118.464 62.7499C130.194 64.1274 132.511 71.433 132.067 74.5078C131.624 77.5825 129.159 79.2552 128.346 79.7718C127.533 80.2883 127.262 80.4605 127.336 80.8295C127.434 81.3707 127.829 81.3461 128.519 81.2477C129.48 81.0755 134.68 78.7633 134.901 73.1057C135.271 65.8738 128.371 57.9778 116.172 58.0516ZM25.6791 88.5041C21.7853 92.735 16.3636 94.3339 14.0225 92.981C11.5088 91.5297 12.4945 85.2818 17.2755 80.8049C20.1835 78.0745 23.9294 75.5409 26.4184 73.9912C26.9852 73.6468 27.8231 73.1549 28.8335 72.5399C29.006 72.4415 29.1046 72.3923 29.1046 72.3923C29.3018 72.2693 29.4989 72.1463 29.6961 72.0234C31.4458 78.4189 29.77 84.0519 25.6791 88.5041ZM54.0197 69.2684C52.6643 72.5645 49.8302 81.0017 48.1052 80.5343C46.6265 80.1407 45.7147 73.7452 47.8094 67.4235C48.8691 64.2503 51.1117 60.4622 52.4179 58.9863C54.5373 56.6249 56.8784 55.8378 57.4452 56.7971C58.1599 58.0516 54.8576 67.2021 54.0197 69.2684ZM77.4069 80.4359C76.8401 80.7311 76.2979 80.9279 76.0515 80.7803C75.879 80.6819 76.2979 80.2883 76.2979 80.2883C76.2979 80.2883 79.2306 77.1398 80.3888 75.7131C81.0542 74.8767 81.8428 73.8928 82.6807 72.7859C82.6807 72.8843 82.6807 73.0073 82.6807 73.1057C82.6807 76.8692 79.0334 79.4028 77.4069 80.4359ZM95.4463 76.328C95.0274 76.0329 95.1013 75.0489 96.506 71.9742C97.0482 70.7689 98.3297 68.7518 100.523 66.8086C100.769 67.5957 100.942 68.3582 100.917 69.0716C100.893 73.819 97.4918 75.5901 95.4463 76.328Z" fill="#00C4F0"/>
</svg>
