<svg width="117" height="125" viewBox="0 0 117 125" fill="none" xmlns="http://www.w3.org/2000/svg">
<path d="M82.893 0.0482075C80.9135 0.233739 80.4357 0.282563 80.3187 0.331387C80.114 0.409505 79.6654 4.24708 79.4997 7.34252L79.4314 8.60218L78.3588 8.86583C77.7737 9.0123 76.9547 9.26619 76.5549 9.43219C75.531 9.85208 73.2688 10.936 72.6837 11.2973C72.4107 11.4633 72.1669 11.6 72.1474 11.6C72.1182 11.6 70.675 10.4282 68.9394 9.00254C67.2037 7.57688 65.7215 6.38557 65.663 6.35627C65.429 6.25863 63.4301 7.9577 61.9382 9.51031C60.5048 10.9946 58.8666 13.0452 58.9836 13.1916C59.4029 13.7482 61.0021 15.7207 62.3672 17.3612C63.2838 18.4646 64.0736 19.4216 64.1126 19.4899C64.1516 19.5681 64.0249 19.861 63.7811 20.2516C63.1278 21.2867 62.3672 22.8979 62.0259 23.9525C61.8504 24.4895 61.6066 25.2414 61.4799 25.632C61.3531 26.0128 61.2458 26.3937 61.2458 26.4718C61.2458 26.5792 61.0606 26.628 60.5438 26.6768C56.7409 27.0284 53.0843 27.4483 52.9868 27.5557C52.6845 27.8486 52.4895 31.7741 52.6552 33.893C52.7723 35.3675 52.9965 36.969 53.1038 37.0666C53.1428 37.1154 56.0193 37.3986 60.4853 37.8185L61.2361 37.8868L61.2946 38.2872C61.3336 38.5118 61.4409 38.8926 61.5384 39.1367C61.6359 39.3809 61.8699 40.0839 62.0649 40.7089C62.4452 41.8904 63.235 43.57 63.8884 44.5464C64.1029 44.8687 64.2589 45.1812 64.2296 45.2593C64.2004 45.3276 63.4203 46.2943 62.4842 47.4075C59.91 50.4932 59.0909 51.538 59.1689 51.665C59.5004 52.2509 61.0703 54.0964 62.1722 55.2096C63.6251 56.6743 65.8971 58.5687 66.0043 58.4125C66.0433 58.3539 66.9697 57.5727 68.0715 56.6646C69.1734 55.7564 70.5093 54.6433 71.0456 54.1843C71.5819 53.7156 72.0889 53.2859 72.1864 53.2176C72.3229 53.1102 72.5082 53.1785 73.4541 53.7156C74.7607 54.4577 76.3696 55.1217 77.9297 55.5416C78.5441 55.7076 79.1096 55.8834 79.1681 55.9224C79.2461 55.9713 79.3924 56.9868 79.5777 58.8714C79.8702 61.7325 80.1335 63.9882 80.2017 64.1932C80.2797 64.3983 83.2245 64.5545 85.75 64.496C87.7587 64.4471 89.7187 64.2616 89.8747 64.1151C89.8942 64.0858 90.0697 62.3575 90.255 60.2678C90.45 58.1781 90.6255 56.3228 90.6548 56.147C90.7133 55.776 90.6938 55.7857 92.3807 55.2877C93.7946 54.8678 95.6765 54.0378 96.8174 53.325C97.2757 53.0321 97.695 52.8172 97.7535 52.8465C97.812 52.8661 98.4068 53.3543 99.0796 53.9304C101.342 55.8834 104.17 58.0902 104.316 58.0414C104.579 57.934 105.661 57.104 106.266 56.5474C107.524 55.3756 110.976 51.4599 110.976 51.206C110.976 51.1768 109.864 49.8292 108.519 48.2082C107.163 46.5971 105.954 45.1519 105.837 45.0054L105.622 44.7417L106.198 43.6286C106.968 42.1541 107.719 40.2695 108.041 39.0293L108.294 38.0138L110.098 37.8478C111.093 37.7599 112.965 37.5841 114.262 37.467L116.622 37.2424L116.68 36.9885C116.807 36.3733 116.934 34.85 116.982 33.2779C117.07 30.9636 116.817 27.5947 116.553 27.4287C116.485 27.3897 114.632 27.1944 112.419 26.9893C110.205 26.7843 108.363 26.5987 108.324 26.5792C108.284 26.5597 108.206 26.2863 108.148 25.9738C107.885 24.636 107.027 22.4194 106.139 20.7691L105.505 19.5876L105.876 19.1384C106.081 18.8845 107.231 17.4686 108.45 15.9844C109.659 14.5001 110.683 13.2405 110.722 13.1721C110.8 13.0549 110.03 12.0687 108.743 10.6333C107.319 9.05136 104.053 6.22933 103.828 6.39533C103.019 7.01052 100.103 9.3736 99.0796 10.2427C98.3483 10.8481 97.695 11.4047 97.6072 11.473C97.4902 11.5707 97.0806 11.4047 95.3742 10.5356C93.8823 9.79349 92.9657 9.40289 92.2052 9.1783C91.6201 9.00254 91.035 8.86583 90.918 8.86583C90.6743 8.86583 90.6743 8.89512 90.4402 6.3758C90.2745 4.51073 89.8162 0.4388 89.7772 0.399741C89.6992 0.321622 88.5485 0.17515 87.3199 0.0872667C86.0523 -0.0103814 83.6926 -0.029911 82.893 0.0482075ZM87.3297 20.4957C89.4456 20.8473 91.4933 21.9702 93.2778 23.7474C95.0232 25.4855 96.0958 27.3994 96.5443 29.6161C97.5584 34.5082 95.579 39.3613 91.4738 42.0759C89.6017 43.3161 87.788 43.8922 85.4672 43.9899C83.3025 44.0875 81.6839 43.7555 79.8214 42.8474C77.491 41.7049 75.7358 39.9863 74.4974 37.633C73.5613 35.846 73.1908 34.2836 73.2005 32.0573C73.2103 29.3133 73.9514 27.1065 75.5798 24.9973C77.647 22.312 80.4552 20.6422 83.3318 20.3981C84.4141 20.3102 86.5398 20.359 87.3297 20.4957Z" fill="#00C4F0"/>
<path d="M82.8929 22.2338C79.3338 23.015 76.428 25.7394 75.3164 29.3329C75.0727 30.1433 75.0532 30.3191 75.0532 32.0573C75.0434 34.0786 75.0922 34.3813 75.687 35.9241C76.3208 37.5744 77.9784 39.6152 79.5678 40.6893C80.4454 41.285 81.6546 41.8318 82.6589 42.0857C83.907 42.3982 86.2863 42.3982 87.4369 42.0857C88.802 41.7146 89.7869 41.2459 90.8887 40.4257C94.009 38.1017 95.5009 34.7328 95.0816 30.9538C94.8184 28.5126 93.8725 26.5792 92.1466 24.9289C90.84 23.679 89.4748 22.8783 87.7782 22.3706C86.6178 22.0288 84.1605 21.9507 82.8929 22.2338ZM86.6178 24.7336C88.841 25.2024 90.9082 26.7745 91.8541 28.7079C92.0198 29.0497 92.2538 29.6942 92.3611 30.1433C92.5366 30.8562 92.5659 31.1687 92.5269 32.4381C92.4879 33.727 92.4489 34.0102 92.1953 34.7426C91.4543 36.9592 89.2896 38.9317 86.8713 39.5859C86.1302 39.791 84.0435 39.8203 83.3805 39.6347C81.9471 39.2442 80.777 38.5606 79.7336 37.5158C79.2948 37.0861 78.7975 36.4807 78.6123 36.178C76.4475 32.5357 77.5884 27.7607 81.1378 25.6515C81.8593 25.2316 82.9514 24.802 83.673 24.6848C84.4043 24.5579 85.9255 24.5872 86.6178 24.7336Z" fill="#00C4F0"/>
<path d="M45.9953 42.4763C45.264 44.3414 44.4156 46.6557 43.5478 49.1164L42.5922 51.831H41.4026C39.1501 51.831 35.7178 52.29 33.7188 52.8661C33.0363 53.0614 32.461 53.2078 32.4414 53.1883C32.4317 53.1688 32.0904 52.6903 31.6906 52.1239C30.3255 50.171 26.1326 44.4097 26.0838 44.4097C25.9863 44.4097 24.3189 45.0738 23.9484 45.2691C23.7338 45.3765 23.2268 45.6206 22.827 45.8159C22.4272 46.0014 21.6569 46.4115 21.1206 46.7338C20.5843 47.0462 19.6774 47.5833 19.1021 47.9251C18.0783 48.5305 16.6644 49.546 15.7673 50.3175L15.3188 50.7178L16.4889 53.2469C17.1422 54.6433 18.1563 56.8306 18.7511 58.1098L19.8335 60.4338L19.0924 61.1857C17.1812 63.1387 14.8702 66.1755 14.0901 67.7769C13.9341 68.0894 13.7781 68.3335 13.7294 68.3335C13.6903 68.3335 12.3057 68.0992 10.6578 67.8062C7.44973 67.2399 3.12031 66.5466 3.0813 66.5954C3.0033 66.6735 2.07695 69.0171 1.71617 70.0424C1.21887 71.468 0.399789 75.4911 0.0585058 78.2448L0 78.7331L4.95349 80.6372L9.90698 82.5413L9.92648 83.469C9.96548 85.1388 10.1508 87.1894 10.3555 88.244C10.4628 88.8103 10.6188 89.6208 10.6968 90.0309C10.7748 90.4508 10.9503 91.1637 11.0771 91.6226C11.2136 92.0816 11.3209 92.521 11.3209 92.5991C11.3209 92.6674 10.414 93.3803 9.30242 94.1712C8.18106 94.9622 6.25037 96.3585 5.00224 97.2764C2.97404 98.7607 2.74002 98.9657 2.78877 99.161C3.0033 100.02 4.89498 103.692 6.16261 105.723C6.88418 106.856 8.33707 108.945 8.73686 109.414L9.02939 109.746L10.7358 108.955C12.413 108.164 17.9125 105.645 18.4976 105.391L18.7901 105.254L20.1065 106.475C21.7544 108.018 22.5735 108.633 24.8064 110C26.1521 110.82 26.5811 111.133 26.5616 111.269C26.5519 111.367 26.3471 112.656 26.1033 114.13C25.6743 116.728 24.9722 121.435 24.9722 121.679C24.9722 121.747 25.1185 121.854 25.294 121.933C27.488 122.811 29.4479 123.417 32.2659 124.081C34.1479 124.53 36.8781 124.999 36.9756 124.891C37.1512 124.696 39.5206 118.456 40.4372 115.82L40.8078 114.716H42.2899C44.8447 114.716 46.6486 114.463 49.2326 113.72C50.4222 113.388 50.6562 113.349 50.7635 113.457C50.8318 113.535 52.2554 115.527 53.9326 117.89C55.6097 120.253 56.9944 122.206 57.0139 122.216C57.0431 122.255 57.9012 121.854 60.534 120.556C61.6261 120.019 62.9035 119.286 63.898 118.632C65.3119 117.695 67.1256 116.357 67.6132 115.888C67.7887 115.732 67.7594 115.644 66.8233 113.535C66.287 112.334 65.2729 110.117 64.5806 108.613L63.313 105.889L64.4539 104.659C66.014 102.999 67.4279 101.065 68.403 99.2685C68.6468 98.7997 68.8905 98.3994 68.9295 98.3799C68.9685 98.3603 69.8559 98.4873 70.8992 98.663C76.35 99.5809 79.5093 100.079 79.6166 100.04C79.8311 99.952 81.3523 95.6164 81.7716 93.9173C81.8496 93.5658 81.9666 93.185 82.0153 93.0678C82.1031 92.8627 82.7272 89.3376 82.8344 88.4295L82.8929 87.9706L82.4249 87.7655C81.8203 87.4921 77.7444 85.9493 74.9751 84.9337L72.7519 84.1232V82.5999C72.7519 80.852 72.6544 79.856 72.3521 78.2253C72.1766 77.2586 71.6988 75.1591 71.5233 74.5635C71.4843 74.4463 71.9523 74.0655 73.3565 73.0597C75.4724 71.5462 80.1334 68.0699 80.2114 67.9332C80.2797 67.8258 79.6166 66.2634 78.817 64.6717C77.6859 62.3965 76.2233 60.1018 74.6826 58.1586L73.9318 57.2114L72.6349 57.7778C70.8407 58.5687 67.9544 59.8967 65.936 60.8732L64.2491 61.6935L62.9425 60.4533C61.5578 59.1448 59.8807 57.8364 58.7593 57.1724C58.1742 56.8306 56.9749 56.0396 56.7311 55.8346C56.6921 55.7955 56.8384 54.6335 57.0529 53.2371C58.145 46.2651 58.3303 45.0738 58.301 45.0445C58.2815 45.0347 57.5892 44.7613 56.7603 44.439C55.0052 43.7555 52.8697 43.0427 52.5577 43.0427C52.4407 43.0427 52.0994 42.9548 51.7971 42.8571C51.017 42.5837 47.0386 41.783 46.4731 41.7732C46.3171 41.7732 46.2196 41.9295 45.9953 42.4763ZM44.2304 68.0894C46.9216 68.5679 49.7299 69.8861 51.7581 71.634C54.1568 73.7042 56.2435 77.4832 56.8091 80.7739C57.0236 82.014 57.0041 84.1623 56.7701 85.5391C56.3411 88.0292 55.2684 90.6657 53.9911 92.355C51.7386 95.3528 47.8382 97.7061 44.0451 98.3603C42.9335 98.5459 40.7883 98.5459 39.6182 98.3603C37.3949 97.999 34.8792 97.0909 33.319 96.0851C29.8477 93.8392 27.2734 89.9821 26.4739 85.8125C26.2398 84.5724 26.2398 82.3167 26.4739 80.979C27.3514 76.0087 29.6819 72.5617 33.8943 69.9838C35.006 69.3003 36.7514 68.5972 38.0873 68.2749C39.9692 67.8258 42.3679 67.7574 44.2304 68.0894Z" fill="#00C4F0"/>
<path d="M40.72 70.062C38.6235 70.3061 37.4339 70.6674 35.6982 71.5657C32.2854 73.3332 30.2475 75.9013 29.2139 79.7486C28.7263 81.5454 28.6483 82.102 28.6385 83.5667C28.6385 84.9533 28.7946 86.0274 29.1749 87.1894C29.4089 87.912 30.2377 89.7185 30.3352 89.7185C30.3645 89.7185 30.6668 90.1286 30.9885 90.6169C32.4317 92.7944 34.4501 94.4154 36.9269 95.3821C41.8609 97.3155 47.0386 96.3 50.939 92.648C52.6942 91.0075 54.1373 88.3905 54.6249 85.9884C55.2977 82.639 54.7419 79.5045 52.938 76.4774C50.9975 73.2062 48.4623 71.3607 44.5716 70.394C43.265 70.0717 41.7243 69.935 40.72 70.062ZM44.0841 73.714C47.1264 74.4756 49.2716 76.2626 50.7245 79.2311C51.3876 80.6079 51.5338 81.3208 51.5338 83.2249C51.5338 85.1681 51.3876 85.8614 50.6562 87.3652C50.1199 88.4881 49.5641 89.2791 48.7548 90.0896C45.927 92.8725 42.6409 93.683 38.7698 92.5503C36.2541 91.8179 34.2649 90.0798 32.968 87.4824C31.7296 85.0021 31.6126 81.8871 32.6462 79.5143C33.67 77.2098 35.4642 75.374 37.7655 74.2901C39.8814 73.2941 41.7438 73.1281 44.0841 73.714Z" fill="#00C4F0"/>
</svg>
