<svg width="119" height="135" viewBox="0 0 119 135" fill="none" xmlns="http://www.w3.org/2000/svg">
<path d="M59.4734 135C57.6889 135 55.8778 134.518 54.3064 133.607L37.8733 123.829C35.423 122.436 36.6215 121.954 37.4205 121.686C40.6965 120.534 41.3624 120.293 44.8514 118.284C45.2243 118.07 45.7037 118.15 46.0765 118.391L58.701 125.919C59.1538 126.187 59.793 126.187 60.2191 125.919L109.412 97.3623C109.865 97.0945 110.158 96.5587 110.158 96.0229V38.9101C110.158 38.3476 109.865 37.8386 109.385 37.5439L60.2191 9.01429C59.7663 8.7464 59.1538 8.7464 58.701 9.01429L9.56155 37.5707C9.08214 37.8386 8.78917 38.3743 8.78917 38.9369V96.0229C8.78917 96.5587 9.08214 97.0945 9.56155 97.3356L23.0383 105.158C30.3626 108.828 34.8371 104.515 34.8371 100.148V43.7856C34.8371 42.9819 35.4763 42.3658 36.2753 42.3658H42.5076C43.28 42.3658 43.9458 42.9819 43.9458 43.7856V100.175C43.9458 109.98 38.6191 115.605 29.3771 115.605C26.5273 115.605 24.2901 115.605 18.0577 112.498L5.16697 105.024C1.9709 103.175 0 99.7197 0 95.9961V38.9101C0 35.2133 1.9709 31.7308 5.16697 29.8824L54.3064 1.32602C57.4226 -0.442008 61.5508 -0.442008 64.6403 1.32602L113.833 29.9092C117.029 31.7576 119 35.2133 119 38.9369V96.0229C119 99.7197 117.029 103.175 113.833 105.051L64.6403 133.607C63.0689 134.518 61.2845 135 59.4734 135ZM99.1844 78.7176C99.1844 68.0291 91.9933 65.1895 76.8919 63.1804C61.6041 61.1445 60.0593 60.0997 60.0593 56.5101C60.0593 53.5366 61.3644 49.5719 72.6837 49.5719C82.778 49.5719 86.5067 51.7685 88.0515 58.6263C88.1846 59.2693 88.7706 59.7515 89.4364 59.7515H95.8286C96.2281 59.7515 96.6009 59.5907 96.8673 59.2961C97.1336 59.0014 97.2668 58.5996 97.2401 58.1977C96.2547 46.3841 88.451 40.8924 72.6837 40.8924C58.6477 40.8924 50.2847 46.8395 50.2847 56.8315C50.2847 67.654 58.6211 70.6543 72.0712 71.9937C88.1846 73.5743 89.4364 75.9584 89.4364 79.1462C89.4364 84.6647 85.0152 87.022 74.6547 87.022C61.6307 87.022 58.7809 83.7271 57.8221 77.2175C57.7155 76.521 57.1296 76.012 56.4105 76.012H50.045C49.246 76.012 48.6334 76.6549 48.6334 77.4318C48.6334 85.763 53.1345 95.7015 74.6813 95.7015C90.2355 95.6747 99.1844 89.4866 99.1844 78.7176V78.7176Z" fill="#00C4F0"/>
</svg>
